<svg width="11" height="11" viewBox="0 0 11 11" fill="none" xmlns="http://www.w3.org/2000/svg">
    <path d="M5.5 7.79166C5.74312 7.79166 5.97627 7.69508 6.14818 7.52318C6.32009 7.35127 6.41667 7.11811 6.41667 6.875C6.41667 6.36624 6.00417 5.95833 5.5 5.95833C5.25689 5.95833 5.02373 6.05491 4.85182 6.22681C4.67991 6.39872 4.58334 6.63188 4.58334 6.875C4.58334 7.11811 4.67991 7.35127 4.85182 7.52318C5.02373 7.69508 5.25689 7.79166 5.5 7.79166ZM8.25 3.66666C8.49312 3.66666 8.72627 3.76324 8.89818 3.93515C9.07009 4.10706 9.16667 4.34021 9.16667 4.58333V9.16666C9.16667 9.40978 9.07009 9.64293 8.89818 9.81484C8.72627 9.98675 8.49312 10.0833 8.25 10.0833H2.75C2.50689 10.0833 2.27373 9.98675 2.10182 9.81484C1.92991 9.64293 1.83334 9.40978 1.83334 9.16666V4.58333C1.83334 4.07458 2.24584 3.66666 2.75 3.66666H3.20834V2.74999C3.20834 2.14221 3.44978 1.55931 3.87955 1.12954C4.30932 0.699771 4.89221 0.458328 5.5 0.458328C5.80095 0.458328 6.09895 0.517604 6.37698 0.632771C6.65502 0.747938 6.90765 0.916741 7.12045 1.12954C7.33325 1.34234 7.50206 1.59497 7.61723 1.87301C7.73239 2.15105 7.79167 2.44905 7.79167 2.74999V3.66666H8.25ZM5.5 1.37499C5.13533 1.37499 4.78559 1.51986 4.52773 1.77772C4.26987 2.03559 4.125 2.38532 4.125 2.74999V3.66666H6.875V2.74999C6.875 2.38532 6.73014 2.03559 6.47227 1.77772C6.21441 1.51986 5.86467 1.37499 5.5 1.37499Z" fill="#72767E"/>
</svg>
