<svg width="32" height="32" viewBox="0 0 32 32" fill="none" xmlns="http://www.w3.org/2000/svg">
    <rect x="0.5" y="0.5" width="31" height="31" rx="15.5" fill="white" stroke="#DFE1E4"/>
    <path d="M14.3333 16.8333V15.1667H20.1667C20.6269 15.1667 21 15.5398 21 16C21 16.4602 20.6269 16.8333 20.1667 16.8333H14.3333ZM14.3333 21.8333V20.1667H16.8333C17.2936 20.1667 17.6667 20.5398 17.6667 21C17.6667 21.4602 17.2936 21.8333 16.8333 21.8333H14.3333ZM14.3333 11.8333V10.1667H23.5C23.9602 10.1667 24.3333 10.5398 24.3333 11C24.3333 11.4602 23.9602 11.8333 23.5 11.8333H14.3333ZM11 20.1667H13.0833L10.1667 23.0833L7.25 20.1667H9.33333V9.33333H11V20.1667Z" fill="#72767E"/>
</svg>
