<svg width="16" height="16" viewBox="0 0 16 16" fill="none" xmlns="http://www.w3.org/2000/svg">
    <path d="M3.2 2.4H12.8C13.1183 2.4 13.4235 2.52421 13.6485 2.74531C13.8736 2.9664 14 3.26627 14 3.57895V12.4211C14 12.7337 13.8736 13.0336 13.6485 13.2547C13.4235 13.4758 13.1183 13.6 12.8 13.6H3.2C2.88174 13.6 2.57652 13.4758 2.35147 13.2547C2.12643 13.0336 2 12.7337 2 12.4211V3.57895C2 3.26627 2.12643 2.9664 2.35147 2.74531C2.57652 2.52421 2.88174 2.4 3.2 2.4ZM3.2 4.7579V6.52632H5.6V4.7579H3.2ZM6.8 4.7579V6.52632H9.2V4.7579H6.8ZM12.8 6.52632V4.7579H10.4V6.52632H12.8ZM3.2 7.70527V9.47369H5.6V7.70527H3.2ZM3.2 12.4211H5.6V10.6526H3.2V12.4211ZM6.8 7.70527V9.47369H9.2V7.70527H6.8ZM6.8 12.4211H9.2V10.6526H6.8V12.4211ZM12.8 12.4211V10.6526H10.4V12.4211H12.8ZM12.8 7.70527H10.4V9.47369H12.8V7.70527Z" fill="#1AA772"/>
</svg>
