<svg width="16" height="16" viewBox="0 0 16 16" fill="none" xmlns="http://www.w3.org/2000/svg">
    <path d="M7.33333 11.3333C7.33333 11.5101 7.40357 11.6797 7.5286 11.8047C7.65362 11.9298 7.82319 12 8 12C8.17681 12 8.34638 11.9298 8.4714 11.8047C8.59643 11.6797 8.66667 11.5101 8.66667 11.3333C8.66667 11.1565 8.59643 10.987 8.4714 10.8619C8.34638 10.7369 8.17681 10.6667 8 10.6667C7.82319 10.6667 7.65362 10.7369 7.5286 10.8619C7.40357 10.987 7.33333 11.1565 7.33333 11.3333ZM7.33333 2V4.66667H8.66667V3.38667C10.9267 3.71333 12.6667 5.64667 12.6667 8C12.6667 9.23768 12.175 10.4247 11.2998 11.2998C10.4247 12.175 9.23768 12.6667 8 12.6667C6.76232 12.6667 5.57534 12.175 4.70017 11.2998C3.825 10.4247 3.33333 9.23768 3.33333 8C3.33333 6.88 3.72667 5.85333 4.38667 5.05333L8 8.66667L8.94 7.72667L4.40667 3.19333V3.20667C2.94667 4.3 2 6.03333 2 8C2 9.5913 2.63214 11.1174 3.75736 12.2426C4.88258 13.3679 6.4087 14 8 14C9.5913 14 11.1174 13.3679 12.2426 12.2426C13.3679 11.1174 14 9.5913 14 8C14 6.4087 13.3679 4.88258 12.2426 3.75736C11.1174 2.63214 9.5913 2 8 2H7.33333ZM12 8C12 7.82319 11.9298 7.65362 11.8047 7.5286C11.6797 7.40357 11.5101 7.33333 11.3333 7.33333C11.1565 7.33333 10.987 7.40357 10.8619 7.5286C10.7369 7.65362 10.6667 7.82319 10.6667 8C10.6667 8.17681 10.7369 8.34638 10.8619 8.4714C10.987 8.59643 11.1565 8.66667 11.3333 8.66667C11.5101 8.66667 11.6797 8.59643 11.8047 8.4714C11.9298 8.34638 12 8.17681 12 8ZM4 8C4 8.17681 4.07024 8.34638 4.19526 8.4714C4.32029 8.59643 4.48986 8.66667 4.66667 8.66667C4.84348 8.66667 5.01305 8.59643 5.13807 8.4714C5.2631 8.34638 5.33333 8.17681 5.33333 8C5.33333 7.82319 5.2631 7.65362 5.13807 7.5286C5.01305 7.40357 4.84348 7.33333 4.66667 7.33333C4.48986 7.33333 4.32029 7.40357 4.19526 7.5286C4.07024 7.65362 4 7.82319 4 8Z" fill="#F28C52"/>
</svg>
